<?xml version="1.0" encoding="iso-8859-1"?>
<!-- Generator: Adobe Illustrator 19.0.0, SVG Export Plug-In . SVG Version: 6.00 Build 0)  -->
<svg version="1.1" id="Layer_1" xmlns="http://www.w3.org/2000/svg" xmlns:xlink="http://www.w3.org/1999/xlink" x="0px" y="0px"
	 viewBox="0 0 511.999 511.999" style="enable-background:new 0 0 511.999 511.999;" xml:space="preserve">
<path style="fill:#F7CE4D;" d="M408.069,74.197v131.647l-304.14,100.3H29.782c-16.447,0-29.78-13.333-29.78-29.78V74.197
	c0-16.447,13.333-29.78,29.78-29.78h348.497C394.736,44.417,408.069,57.75,408.069,74.197z"/>
<path style="fill:#E2B844;" d="M408.069,187.036v18.808l-304.14,100.3H85.12v-89.318c0-16.457,13.343-29.79,29.79-29.79
	L408.069,187.036L408.069,187.036z"/>
<path style="fill:#32A8EA;" d="M482.212,467.582H133.717c-16.451,0-29.787-13.336-29.787-29.787V235.634
	c0-16.451,13.336-29.787,29.787-29.787h348.494c16.451,0,29.787,13.336,29.787,29.787v202.161
	C512,454.246,498.664,467.582,482.212,467.582z"/>
<g>
	<rect y="96.141" style="fill:#4D4D4D;" width="408.066" height="50.153"/>
	<path style="fill:#4D4D4D;" d="M199.822,288.913h-45.45c-4.329,0-7.837-3.509-7.837-7.837c0-4.328,3.508-7.837,7.837-7.837h45.45
		c4.329,0,7.837,3.509,7.837,7.837C207.659,285.405,204.151,288.913,199.822,288.913z"/>
	<path style="fill:#4D4D4D;" d="M461.558,288.913h-45.451c-4.329,0-7.837-3.509-7.837-7.837c0-4.328,3.508-7.837,7.837-7.837h45.451
		c4.329,0,7.837,3.509,7.837,7.837C469.395,285.405,465.887,288.913,461.558,288.913z"/>
	<path style="fill:#4D4D4D;" d="M374.313,288.913h-45.451c-4.329,0-7.837-3.509-7.837-7.837c0-4.328,3.508-7.837,7.837-7.837h45.451
		c4.329,0,7.837,3.509,7.837,7.837C382.15,285.405,378.642,288.913,374.313,288.913z"/>
	<path style="fill:#4D4D4D;" d="M287.068,288.913h-45.451c-4.329,0-7.837-3.509-7.837-7.837c0-4.328,3.508-7.837,7.837-7.837h45.451
		c4.329,0,7.837,3.509,7.837,7.837C294.904,285.405,291.397,288.913,287.068,288.913z"/>
</g>
<path style="fill:#F7CE4D;" d="M222.742,417.713c6.572,3.814,14.2,5.987,22.33,5.987c24.67,0,44.67-19.999,44.67-44.67
	c0-24.67-19.999-44.67-44.67-44.67c-8.129,0-15.757,2.173-22.33,5.987"/>
<circle style="fill:#EF5959;" cx="200.402" cy="379.028" r="44.668"/>
<g>
</g>
<g>
</g>
<g>
</g>
<g>
</g>
<g>
</g>
<g>
</g>
<g>
</g>
<g>
</g>
<g>
</g>
<g>
</g>
<g>
</g>
<g>
</g>
<g>
</g>
<g>
</g>
<g>
</g>
</svg>
