<svg height="512pt" viewBox="0 0 512 512" width="512pt" xmlns="http://www.w3.org/2000/svg"><path d="m77.789062 170.882812h78.449219v39.972657h39.972657v-39.972657h119.917968v39.972657h39.972656v-110.921875c0-55.105469-44.832031-99.933594-99.933593-99.933594-55.101563 0-99.929688 44.828125-99.929688 99.933594v30.976562h-113.421875l-35.203125 262.65625 46.734375-47.777344zm118.417969-70.949218c0-33.0625 26.898438-59.960938 59.960938-59.960938s59.960937 26.898438 59.960937 59.960938v30.976562h-119.921875zm315.433594 345.292968c1.832031 16.90625-3.628906 33.859376-14.984375 46.511719-11.355469 12.65625-27.621094 19.914063-44.625 19.914063h-391.726562c-.148438 0-.292969-.011719-.4375-.011719l39.085937-39.960937h353.078125c5.75 0 11.03125-2.359376 14.875-6.636719 3.792969-4.230469 5.570312-9.65625 5.015625-15.296875l-21.4375-159.941406h40.332031l20.796875 155.171874zm.359375-314.316406v118.921875h-39.972656v-49.683593l-209.109375 209.105468-80.234375-80.234375-154.007813 158.582031-28.675781-27.847656 182.265625-187.683594 80.652344 80.65625 181.84375-181.84375h-52.679688v-39.972656zm0 0"/></svg>